<svg width="44" height="44" viewBox="0 0 44 44" fill="none" xmlns="http://www.w3.org/2000/svg">
<rect width="44" height="44" rx="14" fill="#6B59CC"/>
<mask id="mask0_1052_128" style="mask-type:luminance" maskUnits="userSpaceOnUse" x="0" y="0" width="44" height="44">
<rect width="44" height="44" rx="14" fill="white"/>
</mask>
<g mask="url(#mask0_1052_128)">
<path fill-rule="evenodd" clip-rule="evenodd" d="M25.5156 30.875C24.526 31.8646 23.3542 32.3594 22 32.3594C20.6458 32.3594 19.474 31.8646 18.4844 30.875C17.4948 29.8854 17 28.7135 17 27.3594V17.3594C17 16.0052 17.4948 14.8333 18.4844 13.8438C19.474 12.8542 20.6458 12.3594 22 12.3594C23.3542 12.3594 24.526 12.8542 25.5156 13.8438C26.5052 14.8333 27 16.0052 27 17.3594V27.3594C27 28.7135 26.5052 29.8854 25.5156 30.875ZM23.6406 38.5312V44H20.3594V38.5312C17.599 38.1146 15.2422 36.8516 13.2891 34.7422C11.3359 32.6328 10.3594 30.1719 10.3594 27.3594H13.1719C13.1719 29.8073 14.0443 31.8255 15.7891 33.4141C17.5339 35.0026 19.6042 35.7969 22 35.7969C24.3958 35.7969 26.4661 35.0026 28.2109 33.4141C29.9557 31.8255 30.8281 29.8073 30.8281 27.3594H33.6406C33.6406 30.1719 32.6641 32.6328 30.7109 34.7422C28.7578 36.8516 26.401 38.1146 23.6406 38.5312Z" fill="white"/>
</g>
</svg>
